<svg xmlns="http://www.w3.org/2000/svg" viewBox="0 0 109.337 46.5" focusable="false">
<title>EDF</title>
<g>
	<path class="logo-flower" clip-rule="evenodd" fill="#ffffff" fill-rule="evenodd" d="M 28.041 7.125 C 28.216 5.673 28 3.552 29.146 2.554 c 0.335 -1.549 2.772 -1.188 2.393 -2.173 c -0.234 -0.618 -1.381 -0.324 -1.846 -0.211 C 29.343 0.254 26 1.311 24.714 1.455 C 24.17 1.304 23.626 1.151 23.082 1 c -2.097 0.282 -3.308 1.951 -4.475 3.277 c -0.979 1.113 -2.303 3.834 -1.25 5.463 c -0.059 0.356 -0.118 0.711 -0.176 1.069 l 2.384 3.484 c 0.822 0.589 0.931 1.027 1.816 1.608 c 0.183 0.275 0.364 0.547 0.547 0.822 c 0.725 0.476 2.859 0.482 3.219 0.173 c 3.436 0.319 3.063 -6.64 4.154 -8.098 C 29.164 8.142 28.586 7.461 28.041 7.125 Z M 13.228 28.017 c 0.729 -0.189 1.973 -0.286 2.623 -0.61 c 1.037 -0.52 4.604 -3.014 3.469 -5.044 c -0.351 -4.276 -5.512 -0.662 -7.709 -2.162 c -2.224 -0.286 -4.724 -4.493 -5.393 -6.294 c -0.261 -0.713 -0.153 -0.469 -0.509 -1.033 c 0.004 -0.058 -0.228 0.196 -0.225 0.136 c -0.651 0.757 -0.538 1.419 -0.639 3.265 c -0.292 -0.018 -0.582 -0.037 -0.875 -0.055 c -0.056 0.669 -0.124 1.035 -0.437 1.377 c -0.063 0.114 -0.13 0.223 -0.193 0.337 c -0.553 -0.186 -0.277 0.078 -0.502 -0.384 C 0.79 17.651 0.941 19.709 0 20.881 C 0.042 24.722 7.646 29.462 13.228 28.017 Z M 38.488 16.349 c -3.318 0.501 -5.348 1.558 -6.601 2.426 c -0.874 0.61 -1.131 1.021 -1.319 1.276 c -0.189 0.258 -0.317 0.826 -0.223 1.425 c 0.096 0.594 0.337 1.228 0.855 1.58 c 4.074 -0.302 11.148 -0.559 12.524 2.865 c 0.074 0.476 0.181 0.762 0.191 0.876 c 1.348 -0.332 0.362 -0.214 2.349 0.099 c 0.456 0.07 1.577 -0.182 2.322 -0.364 c 0.337 -0.079 0.528 -0.387 0.528 -0.387 s -0.063 -0.325 -0.044 -0.502 c 0 0 0.697 0.051 0.983 -0.168 c 1.884 -0.306 0.893 -1.192 1.783 -2.189 C 51.301 16.888 44.738 15.401 38.488 16.349 Z M 31.215 30.265 c -0.945 0.722 -1.343 0.543 -1.897 1.661 c -0.056 0 0.085 0.17 0.026 0.17 c 0.565 1.124 1.856 1.578 2.807 2.368 c 0.296 0.25 1.097 1.639 1.478 1.74 c 0.427 0.51 0.707 1.921 0.985 1.921 c 0.292 0.397 -0.023 1.331 0.261 1.694 c 0.021 1.672 -0.212 1.792 -0.503 2.112 c 0 0.117 0.161 0.421 0.161 0.534 c 0.079 0.08 0.75 0.561 1.042 0.502 c 0.909 0.028 4.642 2.94 4.938 3.502 c 2.678 0.201 2.484 -0.617 4.331 -1.4 c 0.5 -0.215 0.896 -0.011 1.224 -0.353 c 0.343 -0.351 0.372 -1.042 0.701 -1.4 C 46.812 36.731 37.851 30.494 31.215 30.265 Z M 20.667 31.769 c -0.373 0.397 -1.396 0.544 -1.683 0.996 c -0.439 0.687 -1.443 2.252 -2.232 2.996 c -2.536 2.407 -7.964 3.616 -10.643 1.316 c -0.174 0.012 -0.072 0.113 0.136 0.771 c 0.195 1.247 1.2 4.17 0.83 4.917 c 0.239 0.83 0.492 0.526 0.946 0.985 c 0.312 0.312 0.439 1.125 0.796 1.345 c 0.409 -0.026 0.817 -0.055 1.224 -0.085 c 0.073 0.228 0.149 0.454 0.224 0.688 c 0.522 -0.04 1.047 -0.077 1.571 -0.115 c 0.295 0.066 1.185 0.527 1.446 0.597 c 0.582 -0.042 1.164 -0.08 1.745 -0.122 c 1.333 0.354 2.494 -0.202 3.618 -0.96 c 0.626 -0.421 1.313 -0.354 1.87 -0.83 c 0.807 -0.692 1.905 -2.044 2.418 -2.978 c 1.261 -2.293 0.835 -7.78 -0.309 -9.138 C 22.178 31.665 21.649 31.656 20.667 31.769 Z" />
	<g>
		<path class="logo-letter logo-e" fill="#ffffff" d="M 65.876 32.658 c -2.508 0 -4.436 -1.686 -4.436 -4.322 v -0.223 c 0 0 4.657 -0.114 6.234 -0.114 c 2.687 0 3.793 -0.025 5.91 -0.054 c 0 -0.397 0 -1.499 0 -1.499 c 0 -6.774 -2.873 -10.068 -8.787 -10.068 c -2.727 0 -9.068 1.024 -9.068 10.508 c 0 6.326 3.196 10.106 8.778 10.106 c 4.384 0 7.076 -1.117 9.025 -2.541 c -0.219 -0.329 -1.854 -3.263 -2.065 -3.583 C 70.295 31.762 68.366 32.658 65.876 32.658 Z M 61.44 24.312 c 0.077 -1.15 0.489 -3.821 3.392 -3.821 c 2.976 0 3.139 2.512 3.139 3.836 v 0.268 c 0 0 -1.986 0.054 -3.174 0.054 c -1.188 0 -3.375 -0.054 -3.375 -0.054 L 61.44 24.312 Z" />
		<path class="logo-letter logo-d" fill="#ffffff" d="M 84.942 16.803 c 5.513 0 9.243 3.482 9.243 9.718 c 0 7.837 -5.122 10.155 -10.49 10.155 h -7.183 c 0.025 -0.434 0 -1.593 0 -3.047 V 19.848 c 0 -1.452 0.025 -2.378 0 -3.045 H 84.942 Z M 83.331 32.903 c 3.044 0 5.52 -1.007 5.52 -6.382 c 0 -4.572 -2.476 -6.093 -5.52 -6.093 h -1.597 v 12.475 H 83.331 Z" />
		<path class="logo-letter logo-f" fill="#ffffff" d="M 101.996 33.629 c 0 1.454 0.071 3.047 0.071 3.047 h -5.33 c 0 0 0.036 -1.593 0.036 -3.047 V 19.848 c 0 -1.452 -0.036 -3.045 -0.036 -3.045 h 12.6 v 3.845 c 0 0 -2.816 -0.072 -3.773 -0.072 h -3.568 v 4.003 l 3.568 0.038 c 0.668 0 2.968 -0.038 2.968 -0.038 v 3.661 c 0 0 -2.042 -0.055 -2.968 -0.055 l -3.568 0.021 V 33.629 Z" />
	</g>
</g>
</svg>